<svg xmlns="http://www.w3.org/2000/svg" xmlns:xlink="http://www.w3.org/1999/xlink" version="1.1" x="0px" y="0px" viewBox="0 0 100 100" xml:space="preserve">
  <rect width="100" height="100" fill="#fcefed"/>
  <g>
    <path d="M49.5,77.4L49.5,77.4v-4v-5.6l7.1,1.2c0,0,1.2,3.7,3.8,4.1c1.1,0.2,1.9-0.4,2.9-1.3l-0.7,5.3c-0.1,0.9,0.5,1.7,1.5,1.6   l3.1,0l0,0l9-0.1c1.1,0,2-0.7,2.3-1.6c0.3-1.1-0.5-2-1.8-2.1L68,74.3l1.5-8.5c0,0,0,0,0,0c0-0.1,0.1-0.3,0.1-0.4   c0.3-2.5-1.7-5.1-4.5-4.8c-2.2,0.2-5.1,1.1-8.8,0.3c0,0,0,0,0,0.1c-0.3,0.8-0.9,1.4-1.7,1.8c-0.4,0.2-0.8,0.2-1.2,0.2   c-1,0-2-0.5-2.6-1.3l-4.5-5c-0.1,0-0.3,0-0.4,0c-2.8-0.2-5.4,2.5-5.2,5.3c0.1,0.9,0.7,3,1,4.1l1.3,7.7l-2,0.1V77   c0,0.8-0.3,1.4-0.7,1.9l7.6,0.2C48.7,79.2,49.5,78.4,49.5,77.4z"/>
    <ellipse transform="matrix(0.1492 -0.9888 0.9888 0.1492 10.2866 66.6215)" cx="43.9" cy="27.3" rx="6.5" ry="6.5"/>
    <path d="M38.3,78.9c1,0,1.8-0.9,1.8-1.9v-5.8l-0.8-10.6l3.4-11.2l0.9,2.7l7.9,8.9c0.4,0.6,1.1,1,1.9,1c0.3,0,0.6-0.1,0.9-0.2   c1.2-0.5,1.7-1.8,1.1-2.8l-1.2-1.6c1.5-0.4,3,0,4,0.2c1.1,0.3,2.3,0,3.2-0.9c1.3-1.3,1.4-3.5,0-4.8c-0.2-0.2-0.4-0.4-0.6-0.5   c-0.3-0.2-0.6-0.3-1.1-0.4c0,0,0,0,0,0c0,0,0,0,0,0c0,0,0,0,0,0c-0.1,0-0.2,0-0.4-0.1c-3.4-0.5-5.5,2-6.7,4.5l-4-5.4l-3.2-12   c-0.1-0.3-0.2-0.5-0.4-0.7c-0.6-1.3-1.9-2.4-3.5-2.7h0c-0.4-0.1-0.8-0.1-1.3-0.1c-2.4,0-4.5,1.5-5.1,3.7l-5.6,17.6   c-0.4,1.7,0.1,3.4,1.3,4.6l1.6,10.8h-6.9c-2.3,0-4.2,1.6-4.2,3.7c0,2,1.8,3.6,4,3.7L38.3,78.9C38.3,78.9,38.3,78.9,38.3,78.9z"/>
    <ellipse transform="matrix(0.1492 -0.9888 0.9888 0.1492 6.4928 114.3347)" cx="69.7" cy="53.4" rx="6.5" ry="6.5"/>
  </g>
</svg>